<svg width="603" height="435" viewBox="0 0 603 435" fill="none" xmlns="http://www.w3.org/2000/svg">
<path d="M46.6 295L3 148.8H29.6L52.8 226C55 234 57.2 242.2 59.4 255C61.8 242 64 234.4 66.6 226L89.6 148.8H117.8L140.4 226C142.8 234.2 145 242.6 147.4 255C150.2 241.4 152.2 233.6 154.4 226.2L178 148.8H204L159.6 295H134.8L103.6 188.6L71.8 295H46.6Z" fill="#11030D"/>
<path d="M445.2 99.2C445.2 102.8 444.6 106.333 443.4 109.8C442.333 113.267 440.8 116.533 438.8 119.6C436.933 122.667 434.733 125.6 432.2 128.4C429.8 131.067 427.333 133.533 424.8 135.8C424.533 141.933 423.533 148.467 421.8 155.4C420.067 162.467 417.6 170.067 414.4 178.2C411.2 186.333 407.467 194.667 403.2 203.2C395.6 217.6 386.667 232 376.4 246.4C366.133 260.667 354.8 273.933 342.4 286.2C334.533 294.067 326.133 301.6 317.2 308.8C308.4 316 299 322.333 289 327.8C279.133 333.267 268.733 337.667 257.8 341C247 344.333 235.8 346 224.2 346C212.733 346 202.867 344.533 194.6 341.6C186.333 338.8 179.467 334.8 174 329.6C168.667 324.533 164.667 318.4 162 311.2C159.467 304.133 158.2 296.267 158.2 287.6C158.2 278.933 159.4 269.667 161.8 259.8C164.333 249.933 167.867 239.8 172.4 229.4C176.933 219 182.4 208.533 188.8 198C195.333 187.333 202.667 176.933 210.8 166.8C200 163.867 190.467 160.4 182.2 156.4C174.067 152.4 166.8 148.067 160.4 143.4C149.467 135.133 141.467 126.133 136.4 116.4C131.467 106.533 129 96.7333 129 87C129 77.8 130.6 69.3333 133.8 61.6C137 53.7333 141.467 47 147.2 41.4C152.933 35.8 159.733 31.4 167.6 28.2C175.467 25 184.067 23.4 193.4 23.4C204.467 23.4 214.867 25.4 224.6 29.4C234.467 33.4 243.333 38.8667 251.2 45.8C259.067 52.7333 265.8 60.8667 271.4 70.2C277 79.4 281.133 89.2667 283.8 99.8C291.8 94.6 300.2 89.8 309 85.4C317.8 81 326.8 77.2 336 74C345.2 70.8 354.4 68.3333 363.6 66.6C372.933 64.7333 382.133 63.8 391.2 63.8C396.8 63.8 402.733 64.3333 409 65.4C415.267 66.3333 421.067 68.1333 426.4 70.8C431.733 73.4667 436.133 77.1333 439.6 81.8C443.067 86.3333 444.933 92.1333 445.2 99.2ZM418.2 154.6C419.667 149 420.6 143.8 421 139C414.867 143.933 407.6 148.6 399.2 153C390.8 157.4 381.333 161.267 370.8 164.6C360.4 167.8 348.867 170.4 336.2 172.4C323.667 174.4 310.067 175.533 295.4 175.8C289.4 183 283.867 190.267 278.8 197.6C273.733 204.933 268.933 212.667 264.4 220.8C260.133 228.667 256.4 236.733 253.2 245C250 253.133 247.8 262 246.6 271.6L244.6 271.4C244.467 269.933 244.333 268.533 244.2 267.2C244.2 265.733 244.2 264.267 244.2 262.8C244.2 254.4 245.267 246.533 247.4 239.2C249.533 231.733 252.267 224.133 255.6 216.4C258.933 208.8 262.467 201.733 266.2 195.2C270.067 188.667 274.4 182.2 279.2 175.8C276.667 175.8 274.067 175.733 271.4 175.6C268.867 175.467 266.467 175.267 264.2 175C257.267 174.6 250.6 174.067 244.2 173.4C237.933 172.6 232 171.6 226.4 170.4C218.933 180.8 212.267 191.4 206.4 202.2C200.533 212.867 195.533 223.4 191.4 233.8C187.4 244.2 184.267 254.333 182 264.2C179.867 273.933 178.8 283.067 178.8 291.6C178.8 299.067 179.667 305.867 181.4 312C183.267 318.267 186.067 323.6 189.8 328C193.533 332.533 198.267 336 204 338.4C209.867 340.933 216.867 342.2 225 342.2C235.667 342.2 246.2 340.6 256.6 337.4C267 334.2 277 329.867 286.6 324.4C296.333 319.067 305.667 312.8 314.6 305.6C323.533 298.533 331.933 291.067 339.8 283.2C352.333 270.667 363.667 257.4 373.8 243.4C384.067 229.267 392.8 215.333 400 201.6C404.267 193.333 407.933 185.267 411 177.4C414.067 169.4 416.467 161.8 418.2 154.6ZM162.8 140.4C169.067 145.2 176.333 149.533 184.6 153.4C193 157.267 202.6 160.6 213.4 163.4C222.733 151.8 232.933 140.867 244 130.6C255.2 120.333 267.133 111 279.8 102.6C276.733 93.1333 272.467 84.1333 267 75.6C261.667 66.9333 255.267 59.3333 247.8 52.8C240.467 46.1333 232.133 40.8667 222.8 37C213.6 33 203.6 31 192.8 31C184.8 31 177.2 32.2667 170 34.8C162.8 37.3333 156.4 41 150.8 45.8C145.333 50.6 140.933 56.4667 137.6 63.4C134.4 70.3333 132.8 78.2 132.8 87C132.8 96.2 135.133 105.467 139.8 114.8C144.6 124 152.267 132.533 162.8 140.4ZM423 118.8C423.933 122.133 424.533 126.067 424.8 130.6C426.933 128.6 429 126.4 431 124C433 121.6 434.733 119.133 436.2 116.6C437.8 113.933 439.067 111.2 440 108.4C440.933 105.467 441.4 102.467 441.4 99.4C441.4 93.2667 439.933 88.2 437 84.2C434.067 80.0667 430.2 76.8 425.4 74.4C420.6 71.8667 415.2 70.1333 409.2 69.2C403.2 68.1333 397.2 67.6 391.2 67.6C382.133 67.6 372.933 68.6667 363.6 70.8C354.4 72.9333 345.267 75.8667 336.2 79.6C327.133 83.2 318.333 87.4667 309.8 92.4C301.267 97.3333 293.267 102.6 285.8 108.2C286.467 112.467 286.933 116.733 287.2 121C287.467 125.133 287.6 129.533 287.6 134.2H285.6C285.2 130.2 284.733 126.267 284.2 122.4C283.667 118.533 282.933 114.733 282 111C272 118.867 262.533 127.6 253.6 137.2C244.8 146.667 236.533 156.6 228.8 167C234.4 168.067 240.067 168.933 245.8 169.6C251.667 170.267 257.8 170.867 264.2 171.4C269.8 171.8 275.733 172 282 172L292.6 159.2C298.333 152.8 305.067 146.133 312.8 139.2C320.667 132.267 329.067 125.933 338 120.2C346.933 114.467 356.267 109.8 366 106.2C375.733 102.467 385.4 100.6 395 100.6C401.8 100.6 407.6 102 412.4 104.8C417.2 107.6 420.733 112.267 423 118.8ZM298.4 172C312.933 171.6 326.4 170.333 338.8 168.2C351.2 166.067 362.533 163.267 372.8 159.8C383.067 156.333 392.2 152.4 400.2 148C408.333 143.6 415.333 138.933 421.2 134C421.2 128.667 420.533 123.933 419.2 119.8C417.333 114.467 414.4 110.667 410.4 108.4C406.4 106 401.6 104.8 396 104.8C390.667 104.8 385.133 105.8 379.4 107.8C373.8 109.8 368.133 112.467 362.4 115.8C356.667 119.133 350.933 122.933 345.2 127.2C339.6 131.467 334.2 135.933 329 140.6C323.933 145.267 319.133 149.933 314.6 154.6C310.067 159.267 306 163.6 302.4 167.6C301.733 168.4 301.067 169.133 300.4 169.8C299.733 170.333 299.067 171.067 298.4 172Z" fill="#11030D"/>
<path d="M375.8 295H350.2V148.8H406C439.2 148.8 458.6 165.6 458.6 194.4C458.6 214 449.4 228 432.2 235L460 295H432L407.2 240.4H375.8V295ZM375.8 171.6V217.8H406C422.2 217.8 431.8 209.2 431.8 194.4C431.8 179.8 422.2 171.6 406 171.6H375.8ZM509.784 148.8V225.6L568.984 148.8H599.184L550.784 211.2L599.784 295H570.184L533.984 232.8L509.784 263.8V295H484.184V148.8H509.784Z" fill="#11030D"/>
</svg>
