<svg width="1064" height="628" viewBox="0 0 1064 628" fill="none" xmlns="http://www.w3.org/2000/svg">
<path d="M514.6 221.8C514.6 266.2 485.4 297.4 443.4 297.4C401.6 297.4 372.8 266.4 372.8 221.8C372.8 177.4 401.8 146.2 443.6 146.2C485.4 146.2 514.6 177.2 514.6 221.8ZM487.6 221.8C487.6 190.6 470.4 170.8 443.6 170.8C416.8 170.8 399.6 190.6 399.6 221.8C399.6 253 416.8 272.8 443.6 272.8C470.4 272.8 487.6 252.6 487.6 221.8ZM563.627 295H538.427V148.8H563.827L632.427 252.4V148.8H657.627V295H632.427L563.627 191.4V295ZM715.589 148.8V295H689.989V148.8H715.589ZM809.797 297.4C767.197 297.4 739.597 267.8 739.597 222C739.597 176.6 768.197 146.4 810.997 146.4C845.597 146.4 871.397 166.6 876.397 198H849.397C844.397 181 829.797 171 810.397 171C783.397 171 766.397 190.6 766.397 221.8C766.397 252.8 783.597 272.8 810.397 272.8C830.197 272.8 845.397 262.4 850.197 246.2H876.797C871.197 277 844.397 297.4 809.797 297.4ZM906.105 295H879.505L932.305 148.8H958.505L1011.3 295H984.305L972.505 261.2H917.905L906.105 295ZM942.105 192.4L925.505 239.6H965.105L948.305 192.4C947.105 188.6 945.705 184.2 945.305 181.2C944.705 184 943.505 188.4 942.105 192.4Z" fill="#11030D"/>
<path d="M252.4 472H227.2V325.8H252.6L321.2 429.4V325.8H346.4V472H321.2L252.4 368.4V472ZM442.763 347.4C413.763 347.4 397.163 368.4 397.163 400C397.163 432.6 415.963 450.4 442.963 450.4C468.363 450.4 483.763 436.4 483.763 413V412.4H439.563V389.8H507.563V472H485.963L484.363 455.2C476.363 466.4 459.763 474.2 439.963 474.2C398.963 474.2 370.363 444.4 370.363 399.4C370.363 355 399.363 323.4 443.363 323.4C476.763 323.4 502.563 342.8 506.763 372.6H479.763C475.163 355.4 460.363 347.4 442.763 347.4ZM534.208 418.6V325.8H559.808V417C559.808 438 571.208 449.6 592.008 449.6C612.808 449.6 624.408 437.8 624.408 417V325.8H650.008V418.6C650.008 452.8 627.608 474.4 592.008 474.4C556.608 474.4 534.208 453 534.208 418.6Z" fill="#11030D"/>
<path d="M853.2 302C862.933 294.8 872.933 288.333 883.2 282.6C893.467 276.733 904 271.733 914.8 267.6C925.733 263.333 936.933 260.067 948.4 257.8C959.867 255.533 971.733 254.4 984 254.4C998.133 254.4 1011.93 256.467 1025.4 260.6C1039 264.6 1051.8 271 1063.8 279.8L1061.8 283C1050.07 274.333 1037.6 268.067 1024.4 264.2C1011.2 260.2 997.667 258.2 983.8 258.2C972.2 258.2 960.733 259.4 949.4 261.8C938.2 264.2 927.2 267.6 916.4 272C905.733 276.267 895.4 281.467 885.4 287.6C875.533 293.6 866.2 300.267 857.4 307.6C851.267 312.933 845.067 318.8 838.8 325.2C832.667 331.6 826.6 338.333 820.6 345.4C814.733 352.333 809 359.467 803.4 366.8C797.933 374 792.8 381.133 788 388.2C784.4 393.667 780.6 399.533 776.6 405.8C772.733 412.067 768.8 418.467 764.8 425C760.933 431.4 757.067 437.8 753.2 444.2C749.467 450.467 745.933 456.4 742.6 462C736.2 472.933 729.667 483.933 723 495C716.467 506.2 709.733 517.067 702.8 527.6C708.4 531.467 713.733 535.333 718.8 539.2C723.867 543.067 728.867 547.133 733.8 551.4L731.8 555C726.6 550.333 721.333 545.933 716 541.8C710.8 537.8 705.667 534.067 700.6 530.6C697.133 535.667 693.467 540.8 689.6 546C685.733 551.333 681.867 556.333 678 561C671.2 568.867 663.933 576.2 656.2 583C648.467 589.8 640.2 595.667 631.4 600.6C622.6 605.667 613.2 609.667 603.2 612.6C593.333 615.533 582.8 617 571.6 617C566.267 617 561 616.533 555.8 615.6C550.6 614.8 545.733 613.467 541.2 611.6C536.667 609.733 532.6 607.2 529 604C525.4 600.933 522.467 597.2 520.2 592.8C517.4 587.467 516 581.733 516 575.6C516 570 516.933 564.533 518.8 559.2C520.667 554 523.067 549.067 526 544.4C529.733 538.4 534.467 532.667 540.2 527.2C545.933 521.867 552.467 517.133 559.8 513C567.133 508.867 575.267 505.533 584.2 503C593.133 500.6 602.667 499.333 612.8 499.2H615.2C628.133 499.2 640.133 500.733 651.2 503.8C662.4 506.867 673 510.933 683 516L709.2 479.8C721.067 463.4 732.867 447.2 744.6 431.2C756.467 415.067 768.733 399.067 781.4 383.2C792.067 369.867 802.8 357.133 813.6 345C824.4 332.867 834.8 322.333 844.8 313.4C834.8 322.067 824.333 332.4 813.4 344.4C802.467 356.4 791.333 368.933 780 382C779.067 383.067 778.133 384.067 777.2 385C776.4 385.933 775.6 386.933 774.8 388C770.667 392.667 766.667 397.2 762.8 401.6C759.067 406 755.333 410.267 751.6 414.4C745.867 420.8 739.2 427.933 731.6 435.8C724.133 443.533 716.133 451.067 707.6 458.4C699.067 465.6 690.267 472.133 681.2 478C672.133 483.867 663.267 488 654.6 490.4C650.333 491.467 646 492 641.6 492C638.667 492 635.8 491.667 633 491C630.2 490.333 627.733 489.267 625.6 487.8C623.467 486.333 621.733 484.333 620.4 481.8C619.2 479.267 618.6 476.133 618.6 472.4C618.6 466 620.067 459.333 623 452.4C625.933 445.467 629.667 438.6 634.2 431.8C638.733 424.867 643.667 418.2 649 411.8C654.333 405.267 659.4 399.267 664.2 393.8C665.8 391.933 667.333 390.2 668.8 388.6C670.267 386.867 671.667 385.2 673 383.6L682.4 372.6C687.6 366.6 692.933 360.267 698.4 353.6C703.867 346.933 708.8 340.133 713.2 333.2C717.733 326.267 721.4 319.267 724.2 312.2C727.133 305.133 728.6 298.133 728.6 291.2C728.6 284.4 727.2 278.267 724.4 272.8C721.733 267.333 718.133 262.467 713.6 258.2C709.2 253.933 704 250.267 698 247.2C692.133 244.133 686 241.667 679.6 239.8C673.333 237.8 666.933 236.333 660.4 235.4C654 234.467 648 234 642.4 234C628.267 234 614.2 235.933 600.2 239.8C586.2 243.533 572.533 248.733 559.2 255.4C545.867 261.933 533.067 269.6 520.8 278.4C508.667 287.067 497.333 296.333 486.8 306.2C479.333 313.667 471.6 322.267 463.6 332C455.733 341.733 448.533 352.133 442 363.2C435.467 374.133 430.067 385.467 425.8 397.2C421.667 408.8 419.6 420.2 419.6 431.4C419.6 439.133 420.867 446 423.4 452C426.067 457.867 429.733 462.8 434.4 466.8C439.067 470.8 444.6 473.867 451 476C457.4 478 464.4 479 472 479C480.667 479 489 478.133 497 476.4C505.133 474.533 513.333 471.533 521.6 467.4C530.4 463 538.867 457.6 547 451.2C555.133 444.667 562.467 437.4 569 429.4C575.533 421.4 581.067 412.667 585.6 403.2C590.267 393.733 593.533 383.733 595.4 373.2L597.4 373.4V375.8C597.4 376.2 597.4 376.6 597.4 377C597.533 377.267 597.6 377.533 597.6 377.8C597.6 387.8 595.533 397.8 591.4 407.8C587.4 417.667 582.067 427 575.4 435.8C568.733 444.6 561.133 452.6 552.6 459.8C544.2 467 535.6 472.867 526.8 477.4C522.667 479.533 518.667 481.4 514.8 483C510.933 484.467 507 485.733 503 486.8C499.133 487.733 495.133 488.4 491 488.8C486.867 489.333 482.467 489.6 477.8 489.6C469 489.6 460.733 488.4 453 486C445.4 483.6 438.733 480 433 475.2C427.4 470.4 423 464.4 419.8 457.2C416.6 449.867 415 441.267 415 431.4C415 419.4 416.733 407.4 420.2 395.4C423.8 383.267 428.6 371.533 434.6 360.2C440.6 348.733 447.467 337.8 455.2 327.4C462.933 317 471 307.467 479.4 298.8C490.067 287.867 501.533 277.867 513.8 268.8C526.067 259.733 539 252 552.6 245.6C566.333 239.067 580.667 234 595.6 230.4C610.667 226.8 626.267 225 642.4 225C652.933 225 663.6 226.533 674.4 229.6C685.333 232.533 695.267 237 704.2 243C713.133 248.867 720.4 256.333 726 265.4C731.733 274.333 734.6 284.8 734.6 296.8C734.6 306.267 732.933 315.8 729.6 325.4C726.267 334.867 722 344.267 716.8 353.6C711.6 362.933 705.867 372 699.6 380.8C693.333 389.6 687.267 397.933 681.4 405.8C678.867 409.133 676.4 412.4 674 415.6C671.733 418.667 669.6 421.667 667.6 424.6C666.933 425.533 666.2 426.6 665.4 427.8C664.733 428.867 663.867 430.067 662.8 431.4C660.267 434.867 657.4 438.867 654.2 443.4C651.133 447.933 648.2 452.533 645.4 457.2C642.6 461.733 640.267 466.2 638.4 470.6C636.533 474.867 635.6 478.533 635.6 481.6C635.6 484.267 636.467 486 638.2 486.8C640.067 487.467 642.333 487.8 645 487.8C646.467 487.8 648.067 487.667 649.8 487.4C651.533 487.133 652.933 486.867 654 486.6C662.533 484.467 671.067 480.667 679.6 475.2C688.267 469.6 696.667 463.267 704.8 456.2C713.067 449 720.867 441.467 728.2 433.6C735.667 425.733 742.533 418.4 748.8 411.6C752 408 755.2 404.4 758.4 400.8C761.733 397.2 765 393.533 768.2 389.8L777.2 379.6C783.867 372 790.467 364.467 797 357C803.667 349.4 810.2 342.267 816.6 335.6C823.133 328.8 829.467 322.533 835.6 316.8C841.733 311.067 847.6 306.133 853.2 302ZM640.6 571C646.467 564.6 652.133 557.733 657.6 550.4C663.067 543.2 668.267 536.2 673.2 529.4C674.533 527.533 675.733 525.733 676.8 524C678 522.267 679.333 520.533 680.8 518.8C671.067 513.867 660.8 510 650 507.2C639.333 504.4 627.667 503 615 503H612.8C603.2 503.133 594.133 504.4 585.6 506.8C577.067 509.333 569.2 512.6 562 516.6C554.933 520.6 548.6 525.2 543 530.4C537.4 535.6 532.733 541 529 546.6C526.333 550.867 524.133 555.467 522.4 560.4C520.667 565.467 519.8 570.533 519.8 575.6C519.8 581.2 521 586.4 523.4 591.2C525.4 595.067 527.867 598.333 530.8 601C533.733 603.667 537.067 605.8 540.8 607.4C544.533 609 548.467 610.133 552.6 610.8C556.733 611.6 561 612 565.4 612C572.867 612 580 610.867 586.8 608.6C593.733 606.467 600.267 603.533 606.4 599.8C612.667 596.2 618.6 591.867 624.2 586.8C629.933 581.867 635.4 576.6 640.6 571Z" fill="#F42272"/>
<path d="M580.4 61.2C595.067 61.2 609.4 63.1333 623.4 67C637.4 70.8667 650.867 77.6 663.8 87.2L661.2 90C649.467 81.2 636.933 74.9333 623.6 71.2C610.4 67.3333 596.733 65.4 582.6 65.4C557.667 65.4 533.133 70.8667 509 81.8C494.467 88.3333 481.2 96.4 469.2 106C457.2 115.6 446.467 125.8 437 136.6C431.4 143.667 425.733 151.4 420 159.8C414.4 168.067 408.933 176.667 403.6 185.6C398.267 194.533 393.133 203.467 388.2 212.4C383.267 221.333 378.733 229.8 374.6 237.8C370.067 246.2 364.333 254.933 357.4 264C350.6 273.067 342.733 281.4 333.8 289C324.867 296.6 314.933 302.867 304 307.8C293.067 312.867 281.267 315.4 268.6 315.4V312.6C276.333 311.667 283.667 309.067 290.6 304.8C297.667 300.667 304.2 295.6 310.2 289.6C316.333 283.467 322 276.867 327.2 269.8C332.4 262.6 337.2 255.667 341.6 249C348.133 238.733 354.8 228.4 361.6 218C368.533 207.6 375.667 197.4 383 187.4C390.467 177.267 398.2 167.467 406.2 158C414.333 148.4 422.8 139.333 431.6 130.8C442.667 120 454.467 110.133 467 101.2C479.667 92.2667 493.133 84.6 507.4 78.2C509.667 77.1333 511.933 76.1333 514.2 75.2C516.6 74.2667 519.067 73.4 521.6 72.6C518.933 73.2667 516.333 73.9333 513.8 74.6C511.4 75.2667 509 75.9333 506.6 76.6C491.267 81.2667 476.2 87.3333 461.4 94.8C446.6 102.267 432.6 110.733 419.4 120.2C405.267 130.867 391.333 143.2 377.6 157.2C363.867 171.067 351.267 185.667 339.8 201C331.4 212.733 323.267 225.2 315.4 238.4C307.533 251.6 300.2 265.067 293.4 278.8H290.4C288 268.4 286.8 257.867 286.8 247.2C286.8 239.333 287.4 231.333 288.6 223.2C289.933 215.067 291.733 207.067 294 199.2C296.4 191.2 299.2 183.467 302.4 176C305.6 168.533 309.133 161.467 313 154.8C317.533 147.2 322.533 140.067 328 133.4C333.6 126.6 339.6 120.6 346 115.4C352.4 110.067 359.133 105.6 366.2 102C373.267 98.2667 380.667 95.6 388.4 94H388C378.267 94 368.8 96.0667 359.6 100.2C350.533 104.333 341.733 109.867 333.2 116.8C324.667 123.733 316.467 131.8 308.6 141C300.867 150.2 293.467 159.933 286.4 170.2C279.333 180.467 272.6 190.867 266.2 201.4C259.933 211.933 254.067 222.067 248.6 231.8C247.533 233.933 246.267 236.2 244.8 238.6C243.333 240.867 242.067 243.067 241 245.2C233 259.067 224.4 271.4 215.2 282.2C206.133 293 195.933 302.067 184.6 309.4C173.4 316.867 160.933 322.533 147.2 326.4C133.467 330.4 118.133 332.4 101.2 332.4C87.8667 332.4 75.0667 330.6 62.8 327C50.6667 323.4 39.9333 317.867 30.6 310.4C21.2667 303.067 13.8 293.733 8.2 282.4C2.73333 270.933 -7.07805e-08 257.333 -7.07805e-08 241.6C-7.07805e-08 228.267 2.33333 215.2 7 202.4C11.8 189.467 18.2667 177.467 26.4 166.4C34.6667 155.2 44.3333 145.267 55.4 136.6C66.4667 127.8 78.2667 120.8 90.8 115.6C102.133 111.333 113.467 108.667 124.8 107.6C131.333 95.3333 139.533 84.8 149.4 76C159.267 67.0667 170.2 59.8 182.2 54.2C194.2 48.4666 206.933 44.2666 220.4 41.6C234 38.8 247.733 37.4 261.6 37.4C269.467 37.4 277.4 37.8667 285.4 38.8C293.533 39.6 301.467 40.8666 309.2 42.6C317.067 44.2 324.733 46.2 332.2 48.6C339.667 50.8667 346.733 53.4 353.4 56.2C363.4 60.7333 373.2 66 382.8 72C392.533 78 401.667 84.6 410.2 91.8H410C410.267 91.9333 410.467 92.0666 410.6 92.2C410.867 92.4667 411.067 92.6 411.2 92.6C412.133 93.5333 412.667 94 412.8 94C413.067 94 413.333 94.1333 413.6 94.4L412.4 97.8C410.667 97.2667 409.133 96.9333 407.8 96.8C406.6 96.6667 405.467 96.6 404.4 96.6C396.4 96.6 388.667 98.6667 381.2 102.8C373.867 106.933 366.933 112.133 360.4 118.4C354 124.667 348.133 131.6 342.8 139.2C337.467 146.8 332.867 154.067 329 161C324.2 169.8 319.8 179 315.8 188.6C311.8 198.2 308.267 207.667 305.2 217C302.267 226.333 299.867 235.4 298 244.2C296.133 253 295 261 294.6 268.2C301 255.533 307.733 243.4 314.8 231.8C321.867 220.2 329.267 209.133 337 198.6C348.733 182.467 361.267 167.6 374.6 154C388.067 140.4 402.267 128.133 417.2 117.2C430.533 107.467 444.733 98.8667 459.8 91.4C474.867 83.8 490.133 77.6667 505.6 73C510 71.5333 514.6 70.2667 519.4 69.2C524.2 68.1333 528.867 67.1333 533.4 66.2C540.867 64.7333 548.667 63.5333 556.8 62.6C565.067 61.6667 572.933 61.2 580.4 61.2ZM388.2 90C390.867 90 393.533 90.1333 396.2 90.4C398.867 90.6667 401.533 91.0667 404.2 91.6C388.333 78.9333 370.933 68.3333 352 59.8C345.6 57.1333 338.867 54.7333 331.8 52.6C324.733 50.3333 317.533 48.4667 310.2 47C302.867 45.4 295.467 44.2 288 43.4C280.667 42.4667 273.467 42 266.4 42C253.333 42 240.467 43.2666 227.8 45.8C215.133 48.3333 203.133 52.2666 191.8 57.6C180.6 62.9333 170.333 69.7333 161 78C151.8 86.1333 144 95.8 137.6 107H140.2C154.733 107 169.067 109.133 183.2 113.4C197.333 117.533 211.867 123.4 226.8 131L226 132.8C212.8 127.2 199.667 122.867 186.6 119.8C173.533 116.6 159.733 115 145.2 115C143.2 115 141.133 115 139 115C137 115 135.067 115.133 133.2 115.4C130.533 121.4 128.267 127.6 126.4 134C124.667 140.267 123.8 146.867 123.8 153.8C123.8 162.6 125.267 170.933 128.2 178.8C131.133 186.667 135.267 193.533 140.6 199.4C146.067 205.133 152.6 209.733 160.2 213.2C167.8 216.533 176.333 218.2 185.8 218.2C209 218.2 227.533 208.467 241.4 189L243 190C240.067 195.333 236.6 200.2 232.6 204.6C228.733 209 224.333 212.8 219.4 216C214.6 219.2 209.4 221.667 203.8 223.4C198.2 225.133 192.2 226 185.8 226C175.533 226 165.933 224.4 157 221.2C148.067 217.867 140.267 213.133 133.6 207C126.933 200.867 121.667 193.333 117.8 184.4C114.067 175.467 112.2 165.4 112.2 154.2C112.2 148.067 112.867 141.867 114.2 135.6C115.667 129.2 117.533 123.2 119.8 117.6C115.8 118.4 111.733 119.4 107.6 120.6C103.467 121.8 99.0667 123.333 94.4 125.2C83.2 130.133 72.5333 136.6 62.4 144.6C52.2667 152.6 43.3333 161.8 35.6 172.2C27.8667 182.6 21.6667 193.933 17 206.2C12.4667 218.333 10.2 231.067 10.2 244.4C10.2 257.333 12.4 268.867 16.8 279C21.2 289.133 27.2 297.733 34.8 304.8C42.4 311.867 51.2 317.267 61.2 321C71.2 324.733 81.8 326.6 93 326.6C105 326.6 116.533 324.467 127.6 320.2C138.8 315.933 149.4 310.333 159.4 303.4C169.4 296.467 178.733 288.6 187.4 279.8C196.2 271 204.2 262.133 211.4 253.2C215.133 248.4 219.067 243.067 223.2 237.2C227.467 231.333 231.733 225.333 236 219.2C242.533 209.867 249.4 200.2 256.6 190.2C263.8 180.2 271.333 170.467 279.2 161C287.067 151.4 295.267 142.333 303.8 133.8C312.333 125.133 321.133 117.6 330.2 111.2C339.267 104.667 348.6 99.5333 358.2 95.8C367.933 91.9333 377.933 90 388.2 90Z" fill="#F42272"/>
<path d="M850 472H759.2V325.8H850V349.4H784.8V387H843.2V409.6H784.8V448.4H850V472ZM902.955 472H877.755V325.8H903.155L971.755 429.4V325.8H996.955V472H971.755L902.955 368.4V472Z" fill="#11030D"/>
</svg>
