<?xml version="1.0" encoding="UTF-8"?>
<svg id="Layer_2" xmlns="http://www.w3.org/2000/svg" version="1.1" viewBox="0 0 131.1 55.4">
  <!-- Generator: Adobe Illustrator 29.1.0, SVG Export Plug-In . SVG Version: 2.1.0 Build 142)  -->
  <defs>
    <style>
      .st0 {
        fill: #fffeff;
      }
    </style>
  </defs>
  <g id="Layer_2-2">
    <g>
      <path class="st0" d="M100.5,0c-6.7-.4-12.2.8-16.2,2.1-3.3-1.4-7.1-2.1-11.2-2.1-7.7,0-18.2,3.8-22,10.1-2.1-6.4-7.2-10.1-14.7-10.1s-13.8,2.6-17.5,7.6l1.2-6.1h-11.8L0,55.3h12.7l4.9-30.7c1.3-8.5,6-13.1,12.9-13.1s9.9,4.8,8.7,11.9l-5,31.9h12.7l4.9-30.6c1.3-8.6,9.8-12.4,16.6-13.3,0,0,.2,0,.2,0-17.6,16.4-12.7,42.3,4.1,43.9,20.1,1.5,29.7-20.6,24.8-38.3-.6-1.9-1.4-3.7-2.4-5.3,3.9.7,9.3,3.3,7.9,13.7l-4.7,29.9h12.7l5.2-33c2-12.6-5.6-21.4-15.8-22.2h0ZM75.3,44.4c-10.3-2.2-4.8-22,7.1-29.8,1.6,1.3,3,2.9,3.9,4.9,3.8,8.9-1.3,26.5-10.9,24.9Z"/>
      <path class="st0" d="M124.8,42.6h0c-3.5,0-6.4,2.8-6.4,6.4s2.8,6.4,6.4,6.4h0c3.5,0,6.4-2.8,6.4-6.4s-2.9-6.4-6.4-6.4Z"/>
    </g>
  </g>
</svg>