<?xml version="1.0" encoding="UTF-8"?>
<svg id="Layer_2" data-name="Layer 2" xmlns="http://www.w3.org/2000/svg" viewBox="0 0 131.12 55.36">
  <defs>
    <style>
      .cls-1 {
        fill: #11030d;
      }
    </style>
  </defs>
  <g id="Layer_2-2" data-name="Layer 2">
    <g>
      <path class="cls-1" d="M100.53.07c-6.66-.38-12.16.77-16.15,2.08C81.05.75,77.29,0,73.21,0,65.48,0,54.96,3.81,51.26,10.12,49.19,3.7,44.07,0,36.57,0,29.93,0,22.74,2.62,19.05,7.62l1.2-6.1h-11.75L0,55.28h12.73l4.9-30.69c1.31-8.49,5.99-13.06,12.95-13.06,6.42,0,9.9,4.79,8.71,11.86l-5.01,31.89h12.73l4.9-30.58c1.31-8.6,9.82-12.38,16.62-13.28.07,0,.15-.01.22-.02-17.58,16.42-12.68,42.27,4.08,43.88,20.09,1.49,29.7-20.58,24.77-38.29-.62-1.93-1.42-3.7-2.36-5.31,3.9.7,9.3,3.31,7.88,13.67l-4.68,29.93h12.73l5.22-32.97c1.96-12.62-5.64-21.37-15.85-22.24ZM75.3,44.37c-10.27-2.16-4.82-22,7.05-29.81,1.62,1.26,2.96,2.9,3.88,4.94,3.76,8.92-1.28,26.47-10.93,24.87Z"/>
      <path class="cls-1" d="M124.75,42.56h0c-3.51,0-6.36,2.85-6.36,6.36s2.85,6.36,6.36,6.36h0c3.51,0,6.36-2.85,6.36-6.36s-2.85-6.36-6.36-6.36Z"/>
    </g>
  </g>
</svg>