<svg width="1010" height="325" viewBox="0 0 1010 325" fill="none" xmlns="http://www.w3.org/2000/svg">
<path d="M78 297.4C35.4 297.4 7.8 267.8 7.8 222C7.8 176.6 36.4 146.4 79.2 146.4C113.8 146.4 139.6 166.6 144.6 198H117.6C112.6 181 98 171 78.6 171C51.6 171 34.6 190.6 34.6 221.8C34.6 252.8 51.8 272.8 78.6 272.8C98.4 272.8 113.6 262.4 118.4 246.2H145C139.4 277 112.6 297.4 78 297.4ZM301.358 221.8C301.358 266.2 272.158 297.4 230.158 297.4C188.358 297.4 159.558 266.4 159.558 221.8C159.558 177.4 188.558 146.2 230.358 146.2C272.158 146.2 301.358 177.2 301.358 221.8ZM274.358 221.8C274.358 190.6 257.158 170.8 230.358 170.8C203.558 170.8 186.358 190.6 186.358 221.8C186.358 253 203.558 272.8 230.358 272.8C257.158 272.8 274.358 252.6 274.358 221.8ZM350.384 295H325.184V148.8H350.584L419.184 252.4V148.8H444.384V295H419.184L350.384 191.4V295ZM463.947 172.4V148.8H575.147V172.4H532.347V295H506.747V172.4H463.947Z" fill="#11030D"/>
<path d="M924.4 61.4C938.8 61.4 952.733 63.4 966.2 67.4C979.8 71.4 992.533 77.8 1004.4 86.6L1004 89.8C992 81 979.2 74.7333 965.6 71C952 67.1333 938.267 65.2 924.4 65.2C917.867 65.2 910.867 65.7333 903.4 66.8C896.067 67.8667 888.6 69.4 881 71.4C873.533 73.2667 866.133 75.6 858.8 78.4C851.467 81.2 844.533 84.3333 838 87.8C829.467 92.8667 820.533 99.0667 811.2 106.4C802 113.6 792.733 121.667 783.4 130.6C774.067 139.533 764.867 149.133 755.8 159.4C746.867 169.533 738.533 180 730.8 190.8C731.067 193.733 731.2 196.8 731.2 200C731.2 203.2 731.2 206.333 731.2 209.4C731.2 213.4 731.067 217.467 730.8 221.6C730.667 225.6 730.467 229.733 730.2 234C729.133 246.8 727.333 258.867 724.8 270.2C722.267 281.533 719.2 291.6 715.6 300.4C713.733 304.933 711.467 309.6 708.8 314.4C706.133 319.333 702.933 323.8 699.2 327.8C695.6 331.8 691.467 335.067 686.8 337.6C682.267 340.133 677.133 341.4 671.4 341.4C665 341.4 660.4 339.533 657.6 335.8C654.933 332.067 653.6 327.133 653.6 321C653.6 311.4 655.533 300.867 659.4 289.4C663.267 277.8 668.533 265.933 675.2 253.8C681.867 241.533 689.533 229.2 698.2 216.8C707 204.4 716.333 192.4 726.2 180.8C725.667 176.933 725.133 173.2 724.6 169.6C724.067 166 723.4 162.467 722.6 159C713 167.533 703.733 176.333 694.8 185.4C686 194.467 677.533 203.667 669.4 213C660.6 223.133 651.8 233.133 643 243C634.2 252.867 625.133 262.2 615.8 271C606.467 279.8 596.733 287.933 586.6 295.4C576.467 302.867 565.667 309.333 554.2 314.8C542.733 320.267 530.4 324.533 517.2 327.6C504.133 330.667 489.933 332.2 474.6 332.2C460.733 332.2 447.467 330.533 434.8 327.2C422.133 324 411 318.8 401.4 311.6C391.8 304.4 384.133 295.133 378.4 283.8C372.8 272.333 370 258.4 370 242C370 228.267 372.267 214.867 376.8 201.8C381.333 188.733 387.6 176.667 395.6 165.6C403.6 154.533 413.133 144.667 424.2 136C435.4 127.333 447.6 120.533 460.8 115.6C469.2 112.533 477.2 110.333 484.8 109C492.4 107.667 500.333 107 508.6 107C510.067 107 511.467 107 512.8 107C514.133 107 515.6 107.067 517.2 107.2C517.733 106.133 518.333 104.8 519 103.2C519.8 101.6 520.733 99.8667 521.8 98C526.067 90.6667 531.2 84.2 537.2 78.6C543.333 73 550.067 68.3333 557.4 64.6C564.867 60.8667 572.8 58.0667 581.2 56.2C589.733 54.2 598.533 53.2 607.6 53.2C625.067 53.2 641.333 56.6666 656.4 63.6C671.6 70.5333 684.933 80.8 696.4 94.4C702.267 101.333 707.467 109.067 712 117.6C716.533 126.133 720.333 135.867 723.4 146.8C741 133.467 759.267 121.2 778.2 110C797.267 98.6667 816.067 89.1333 834.6 81.4C848.333 75.8 862.733 71.1333 877.8 67.4C893 63.6667 908.533 61.6667 924.4 61.4ZM617 239.6C632.333 224.667 648.6 209.467 665.8 194C683.133 178.533 701.267 163.667 720.2 149.4C717.133 138.6 713.333 128.867 708.8 120.2C704.267 111.4 699.133 103.6 693.4 96.8C683 84.2667 670.6 74.6667 656.2 68C641.8 61.2 626.267 57.8 609.6 57.8C601.733 57.8 594 58.7333 586.4 60.6C578.8 62.4666 571.533 65.3333 564.6 69.2C557.8 72.9333 551.467 77.6 545.6 83.2C539.733 88.8 534.733 95.3333 530.6 102.8H530.8C530.533 103.6 530.2 104.467 529.8 105.4C529.4 106.333 529 107.2 528.6 108C534.867 108.8 540.8 109.867 546.4 111.2C552.133 112.533 557.733 114.2 563.2 116.2C568.8 118.067 574.333 120.267 579.8 122.8C585.267 125.2 590.933 127.933 596.8 131L596 132.8C589.867 130.267 583.933 128 578.2 126C572.6 123.867 567 122.133 561.4 120.8C555.8 119.333 550.067 118.133 544.2 117.2C538.333 116.267 532.2 115.6 525.8 115.2C524.867 118.267 524.133 121.4 523.6 124.6C523.067 127.667 522.8 131 522.8 134.6C522.8 141 524 147.533 526.4 154.2C528.8 160.733 532.133 166.533 536.4 171.6C539.6 175.067 543.333 178.2 547.6 181C551.867 183.667 556.333 185.933 561 187.8C565.8 189.667 570.733 191.133 575.8 192.2C580.867 193.133 585.867 193.6 590.8 193.6C596 193.6 600.667 193.4 604.8 193C608.933 192.467 612.867 191.733 616.6 190.8C620.467 189.733 624.267 188.467 628 187C631.733 185.533 635.733 183.867 640 182L641 183.8C636.733 186.6 632.667 189.067 628.8 191.2C624.933 193.333 620.933 195.133 616.8 196.6C612.8 198.067 608.467 199.2 603.8 200C599.133 200.8 593.8 201.2 587.8 201.2C576.733 201.2 566.067 199.6 555.8 196.4C545.667 193.067 536.467 187.267 528.2 179C523.133 173 519.067 166.333 516 159C513.067 151.667 511.6 143.733 511.6 135.2C511.6 131.733 511.8 128.4 512.2 125.2C512.733 121.867 513.467 118.467 514.4 115C505.6 115.267 497.267 116.2 489.4 117.8C481.667 119.267 473.4 121.8 464.6 125.4C453.133 130.067 442.267 136.4 432 144.4C421.867 152.267 412.933 161.4 405.2 171.8C397.467 182.2 391.333 193.6 386.8 206C382.4 218.267 380.2 231.067 380.2 244.4C380.2 258 382.467 269.933 387 280.2C391.667 290.467 397.933 299.067 405.8 306C413.8 313.067 423 318.333 433.4 321.8C443.933 325.4 455.133 327.2 467 327.2C477.267 327.2 487.133 325.933 496.6 323.4C506.067 321 515.133 317.667 523.8 313.4C532.6 309.267 541.067 304.333 549.2 298.6C557.467 293 565.4 287 573 280.6C580.733 274.067 588.2 267.333 595.4 260.4C602.733 253.333 609.933 246.4 617 239.6ZM727.6 209.4C727.6 206.6 727.6 204.267 727.6 202.4C727.6 200.533 727.467 198.267 727.2 195.6C719.867 206 713.067 216.533 706.8 227.2C700.667 237.867 695.333 248.4 690.8 258.8C686.267 269.2 682.667 279.4 680 289.4C677.467 299.267 676.2 308.6 676.2 317.4C676.2 326.467 678.667 331 683.6 331C686.933 331 690.067 329.8 693 327.4C696.067 325.133 698.8 322.267 701.2 318.8C703.733 315.467 705.867 312 707.6 308.4C709.467 304.8 710.933 301.667 712 299C715.6 290.067 718.6 280.067 721 269C723.533 257.933 725.333 246.2 726.4 233.8C726.8 229.533 727.067 225.4 727.2 221.4C727.333 217.267 727.467 213.267 727.6 209.4ZM726 156.2C726.667 159.667 727.267 163.133 727.8 166.6C728.467 169.933 729.067 173.4 729.6 177C737.867 167.667 746.333 158.6 755 149.8C763.8 141 772.533 132.8 781.2 125.2C790 117.467 798.667 110.467 807.2 104.2C815.733 97.8 823.867 92.2667 831.6 87.6C812.533 95.7333 794.2 105.667 776.6 117.4C759 129.133 742.133 142.067 726 156.2Z" fill="#11030D"/>
<path d="M826 297.4C783.4 297.4 755.8 267.8 755.8 222C755.8 176.6 784.4 146.4 827.2 146.4C861.8 146.4 887.6 166.6 892.6 198H865.6C860.6 181 846 171 826.6 171C799.6 171 782.6 190.6 782.6 221.8C782.6 252.8 799.8 272.8 826.6 272.8C846.4 272.8 861.6 262.4 866.4 246.2H893C887.4 277 860.6 297.4 826 297.4ZM895.15 172.4V148.8H1006.35V172.4H963.55V295H937.95V172.4H895.15Z" fill="#11030D"/>
</svg>
